<?xml version="1.0" encoding="utf-8"?>
<!-- Generator: Adobe Illustrator 17.0.0, SVG Export Plug-In . SVG Version: 6.00 Build 0)  -->
<!DOCTYPE svg PUBLIC "-//W3C//DTD SVG 1.1//EN" "http://www.w3.org/Graphics/SVG/1.1/DTD/svg11.dtd">
<svg version="1.1" id="Camada_1" xmlns="http://www.w3.org/2000/svg" xmlns:xlink="http://www.w3.org/1999/xlink" x="0px" y="0px"
	 width="225px" height="40px" viewBox="0 0 225 40" enable-background="new 0 0 225 40" xml:space="preserve">
<g>
	<path fill-rule="evenodd" clip-rule="evenodd" fill="#FFFFFF" d="M92.348,24.475c2.092,0,2.728,1.213,2.728,2.513
		c-7.484-0.044-12.509,0-20.011,0c0.084-0.093,0.17-0.185,0.259-0.275c0.902-0.923,2.018-1.691,3.287-2.24L92.348,24.475z"/>
	<path fill-rule="evenodd" clip-rule="evenodd" fill="#FFFFFF" d="M93.352,11.899h1.258v1.258c0,1.109-0.257,1.91-0.708,2.614
		c-0.439,0.688-1.066,1.172-1.966,1.675l-0.08,0.045l-0.032,0.014l-11.881,5.123c-1.299,0.56-2.385,0.973-3.561,1.736
		c-0.707,0.458-1.352,0.985-1.921,1.567c-0.245,0.251-0.477,0.512-0.693,0.783v-0.983c0-1.109,0.186-1.911,0.637-2.614
		c0.44-0.688,1.066-1.171,1.966-1.675l0.08-0.045l0.033-0.014l14.31-6.171c0.501-0.285,0.828-0.525,0.996-0.787l0.007-0.011
		c-6.294,0-9.021,0.014-15.267,0.026c-2.123,0-2.767-1.23-2.767-2.55C81.451,11.936,85.661,11.899,93.352,11.899"/>
	<path fill-rule="evenodd" clip-rule="evenodd" fill="#FFFFFF" d="M5.9,16.238c-0.257,0.464-0.338,0.877-0.338,1.408v9.322h-2.63
		v-9.218C3.814,17.058,4.781,16.61,5.9,16.238"/>
	<path fill-rule="evenodd" clip-rule="evenodd" fill="#FFFFFF" d="M8.694,11.883c3.877,0,6.584,0.03,10.442,0.007
		c0,1.32-0.644,2.572-2.767,2.572l-7.027-0.014c-2.318,0-4.468,0.658-6.234,1.779c0.26-1.019,0.793-1.931,1.514-2.653
		C5.668,12.531,7.109,11.883,8.694,11.883"/>
	<path fill-rule="evenodd" clip-rule="evenodd" fill="#FFFFFF" d="M32.413,17.043v9.908h-2.605v-7.416
		c0.423-0.607,0.929-1.167,1.505-1.667C31.656,17.571,32.024,17.295,32.413,17.043 M49.818,26.951h-2.605V16.595
		c0-0.817-0.851-1.461-2.553-1.938c-1.422-0.374-3.033-0.563-4.834-0.563c-0.593,0-1.164,0.021-1.712,0.061
		c-2.96,0.087-5.634,1.165-7.594,2.865c-0.249,0.216-0.486,0.442-0.711,0.676v-9.28c1.266-0.339,2.605,0.386,2.605,1.888v2.402
		c2.226-0.812,4.697-1.216,7.413-1.216c6.661,0,9.992,1.704,9.992,5.106V26.951z"/>
	<rect x="60.491" y="11.884" fill-rule="evenodd" clip-rule="evenodd" fill="#FFFFFF" width="2.604" height="15.067"/>
	<path fill-rule="evenodd" clip-rule="evenodd" fill="#FFFFFF" d="M123.84,22.401V16.46c0-0.821-0.842-1.465-2.522-1.943
		c-1.187-0.33-2.514-0.526-3.978-0.575c-0.56-0.018-2.539-0.017-3.099,0.002c-0.551,0.018-1.086,0.061-1.599,0.121l-0.002-0.026
		c-2.992,0.301-5.611,1.6-7.446,3.477l-0.013,0.013v-1.075c0-3.311,3.039-5.04,9.116-5.173c0.512-0.011,2.443-0.012,2.958-0.002
		c6.125,0.125,9.188,1.858,9.188,5.176v5.95c0,3.326-3.082,5.061-9.245,5.177c-0.497,0.009-2.411,0.008-2.903-0.003
		c-6.076-0.132-9.115-1.863-9.115-5.174v-3.067c0.263-0.364,0.556-0.711,0.876-1.039c0.511-0.523,1.091-0.996,1.728-1.407v5.509
		c0,0.816,0.842,1.465,2.522,1.942c1.182,0.329,2.502,0.522,3.961,0.574c1.876,0.066,5.236-0.07,7.049-0.574
		C122.998,23.866,123.84,23.221,123.84,22.401"/>
	<path fill-rule="evenodd" clip-rule="evenodd" fill="#FFFFFF" d="M150.239,15.079c-0.326-0.174-0.788-0.351-1.383-0.524
		c-1.177-0.361-2.364-0.542-3.558-0.542c-2.011,0-3.632,0.335-4.861,1.005c-0.67,0.379-1.006,0.912-1.006,1.599v10.334h-2.527
		V16.622c0-1.9,0.98-3.292,2.944-4.177c1.457-0.658,3.275-0.985,5.45-0.985c2.514,0,4.588,0.476,6.222,1.425
		C150.917,13.5,150.479,14.23,150.239,15.079"/>
	<path fill-rule="evenodd" clip-rule="evenodd" fill="#FFFFFF" d="M168.002,16.622v10.329h-2.527V16.617
		c0-0.589-0.254-1.066-0.761-1.428c-0.309-0.21-0.834-0.425-1.573-0.635c-1.178-0.361-2.356-0.542-3.533-0.542
		c-2.029,0-3.657,0.335-4.887,1.005c-0.67,0.379-1.006,0.912-1.006,1.599v10.334h-2.527V16.617c0-1.549,0.641-2.712,1.93-3.579
		c1.696-1.051,3.859-1.578,6.49-1.578c2.157,0,3.967,0.327,5.424,0.985C167.013,13.329,168.002,14.722,168.002,16.622"/>
	<path fill-rule="evenodd" clip-rule="evenodd" fill="#FFFFFF" d="M208.564,6.212h-0.37c-1.544,0-2.946,0.631-3.963,1.648
		c-1.015,1.015-1.647,2.413-1.647,3.947v1.143c-0.827-0.481-1.753-0.758-2.774-0.758c-4.985,0-9.987-0.007-14.982-0.011
		c2.643-4.92,7.702-8.349,13.59-8.698v0.001c0.169-0.01,0.338-0.018,0.508-0.023c0.05-0.002,0.099-0.003,0.149-0.004l0.068-0.001
		c0.089-0.002,0.179-0.002,0.269-0.002c0.035,0,0.069,0,0.104,0h0.005h0c0.074,0.001,0.148,0.002,0.222,0.004V3.456
		C203.003,3.52,206.029,4.526,208.564,6.212 M183.629,24.977c-0.495-1.571-0.762-3.242-0.762-4.976c0-0.626,0.035-1.244,0.103-1.852
		c0.051-0.46,0.136-0.921,0.21-1.379c0.062-0.387-0.235-0.573-0.636-0.421l-1.166,0.443c-0.653,0.248-0.786,0.608-0.838,1.021
		c-0.082,0.718-0.126,1.448-0.126,2.187c0,1.725,0.23,3.395,0.661,4.983c-1.031,0.002-2.064,0.004-3.098,0.004
		c-0.419,0-0.638,0.345-0.476,0.762l0.504,1.222c0.17,0.413,0.628,0.761,1.047,0.761c4.062,0,8.076,0.006,12.137,0.006
		c0.77,0,1.471,0.315,1.978,0.823c0.509,0.509,0.824,1.214,0.824,1.994v5.081c-3.495-1.212-6.458-3.562-8.446-6.607
		c-0.019-0.029-0.041-0.042-0.066-0.044c-0.324-0.483-0.595-0.362-0.972-0.214l-0.672,0.263c-0.369,0.144-0.603,0.472-0.514,0.921
		c0.042,0.214,0.211,0.479,0.335,0.663c1.112,1.647,2.476,3.11,4.036,4.334v0.001c3.229,2.534,7.298,4.045,11.721,4.045
		c3.782,0,7.305-1.106,10.265-3.01v0.001c2.98-1.917,5.388-4.643,6.916-7.869c0.128-0.188,0.25-0.396,0.366-0.642h-0.076
		c0.176-0.41,0.338-0.828,0.485-1.252c0.299-0.861,0.394-1.333,0.588-2.219c0.091-0.418-0.161-0.634-0.586-0.477l-1.248,0.463
		c-0.639,0.237-0.891,0.737-1.043,1.343c-0.864,2.537-2.327,4.797-4.22,6.611c-0.031,0.029-0.062,0.059-0.093,0.088l-0.037,0.036
		c-0.04,0.037-0.079,0.074-0.119,0.111l-0.01,0.009c-0.044,0.041-0.089,0.081-0.134,0.122l-0.028,0.025
		c-0.035,0.031-0.07,0.062-0.105,0.093l-0.038,0.034c-0.035,0.031-0.071,0.062-0.107,0.093l-0.028,0.024
		c-0.045,0.039-0.091,0.078-0.138,0.116l-0.016,0.014c-0.039,0.033-0.079,0.065-0.118,0.098l-0.043,0.035
		c-0.034,0.028-0.068,0.055-0.103,0.083l-0.037,0.03c-1.295,1.03-2.747,1.869-4.315,2.477v-10.71l0-0.714
		c0-0.427-0.4-0.653-0.824-0.488l-1.237,0.45c-0.546,0.198-0.745,0.693-0.745,1.119l-0.001,0.7l-0.001,0.001v10.453
		c-1.025,0.199-2.085,0.303-3.168,0.303c-0.884,0-1.752-0.069-2.599-0.203V24.929c0-0.78,0.316-1.485,0.825-1.994
		c0.507-0.508,1.208-0.823,1.978-0.823h1.195h1.77h2.809h3.38c3.89,0.008,7.829,0.011,11.712,0.011c0.422,0,0.897-0.346,1.055-0.767
		l0.479-1.279c0.138-0.368-0.009-0.678-0.329-0.751h-3.286c-0.096-2.756-0.779-5.363-1.928-7.7
		c-0.203-0.413-0.411-0.787-0.634-1.184c-0.225-0.4-0.375-0.288-0.716-0.164l-1.022,0.371c-0.549,0.199-0.593,0.581-0.367,1.052
		c0.094,0.164,0.186,0.328,0.276,0.495l0.528,1.078c0.829,1.861,1.325,3.903,1.411,6.051h-6.387
		c-1.389,0.005-2.779,0.009-4.169,0.009v-7.527c0-0.78,0.316-1.486,0.824-1.994c0.508-0.508,1.209-0.823,1.979-0.823
		c2.566,0,5.27-0.008,7.843-0.008c0.422,0,0.897-0.297,1.055-0.719l0.48-1.279c0.158-0.421-0.058-0.767-0.48-0.767h-4.564h-0.039
		c-3.378-3.206-7.933-5.183-12.951-5.216l-0.005,0C199.493,1,199.454,1,199.414,1c-0.118,0-0.236,0.001-0.354,0.003l-0.013,0
		c-0.111,0.002-0.222,0.005-0.332,0.009l-0.041,0.002c-0.085,0.003-0.17,0.007-0.254,0.011v0
		c-7.278,0.375-13.472,4.846-16.324,11.153c-1.191-0.001-2.381-0.001-3.57-0.001c-0.419,0-0.634,0.343-0.476,0.762l0.476,1.27
		c0.157,0.418,0.629,0.761,1.047,0.761h0.55h0.823h1.3h1.305h1.552h4.987h9.689c0.771,0,1.471,0.315,1.979,0.823
		c0.509,0.509,0.825,1.214,0.825,1.994v1.546h-2.964c-1.543,0-2.946,0.631-3.962,1.648c-1.016,1.016-1.646,2.413-1.646,3.947v0.797
		c-0.829-0.486-1.794-0.766-2.82-0.766C188.662,24.96,186.146,24.969,183.629,24.977z"/>
	<path fill="#FFFFFF" d="M60.165,38.884c0,0.034,0.034,0.062,0.068,0.062h0.622c0.034,0,0.062-0.027,0.062-0.062v-4.286
		c0-0.034-0.027-0.062-0.062-0.062h-0.622c-0.034,0-0.068,0.027-0.068,0.062V38.884z"/>
	<path fill="#FFFFFF" d="M67.504,34.598c0-0.034-0.034-0.062-0.068-0.062h-0.622c-0.041,0-0.062,0.021-0.062,0.062v1.989
		c0,0.485,0.014,0.902,0.034,1.244c-0.096-0.225-0.191-0.431-0.294-0.601c-0.096-0.178-0.219-0.39-0.369-0.642l-1.223-2.01
		c-0.021-0.027-0.041-0.041-0.075-0.041h-0.677c-0.034,0-0.068,0.027-0.068,0.062v4.286c0,0.034,0.034,0.062,0.068,0.062h0.622
		c0.034,0,0.062-0.027,0.062-0.062v-1.989c0-0.478-0.014-0.889-0.034-1.23c0.198,0.458,0.383,0.786,0.663,1.23l1.224,2.01
		c0.021,0.027,0.048,0.041,0.075,0.041h0.677c0.034,0,0.068-0.027,0.068-0.062V34.598z"/>
	<path fill="#FFFFFF" d="M74.241,37.325l0.232-0.697c0.137-0.39,0.219-0.643,0.301-1.032c0.109,0.526,0.273,0.971,0.294,1.032
		l0.233,0.697H74.241z M76.613,38.877l-1.477-4.293c-0.014-0.034-0.041-0.048-0.075-0.048h-0.574c-0.034,0-0.062,0.014-0.075,0.048
		l-1.483,4.293c-0.007,0.034,0.007,0.068,0.055,0.068h0.649c0.041,0,0.068-0.014,0.082-0.048l0.301-0.895h1.518l0.301,0.895
		c0.013,0.034,0.041,0.048,0.075,0.048h0.656c0.034,0,0.055-0.014,0.055-0.048L76.613,38.877z"/>
	<path fill="#FFFFFF" d="M79.235,37.783c0,0.848,0.431,1.217,1.586,1.217h0.041c1.169,0,1.593-0.369,1.593-1.217v-3.186
		c0-0.034-0.034-0.062-0.068-0.062h-0.622c-0.041,0-0.062,0.021-0.062,0.062v3.186c0,0.41-0.15,0.533-0.841,0.533h-0.041
		c-0.697,0-0.834-0.123-0.834-0.533v-3.186c0-0.034-0.027-0.062-0.062-0.062h-0.622c-0.034,0-0.068,0.027-0.068,0.062V37.783z"/>
	<path fill="#FFFFFF" d="M88.255,34.598c0-0.034-0.034-0.062-0.068-0.062h-2.919c-0.034,0-0.068,0.027-0.068,0.062v0.561
		c0,0.034,0.034,0.062,0.068,0.062h1.087v3.664c0,0.041,0.021,0.062,0.061,0.062h0.622c0.034,0,0.068-0.027,0.068-0.062V35.22h1.08
		c0.034,0,0.068-0.027,0.068-0.062V34.598z"/>
	<path fill="#FFFFFF" d="M92.469,38.316c-0.745,0-0.889-0.123-0.889-0.533v-2.085c0-0.41,0.144-0.533,0.889-0.533h0.041
		c0.738,0,0.882,0.123,0.882,0.533v2.085c0,0.41-0.144,0.533-0.882,0.533H92.469z M90.829,37.783c0,0.841,0.41,1.217,1.641,1.217
		h0.041c1.23,0,1.634-0.376,1.634-1.217v-2.085c0-0.841-0.404-1.217-1.634-1.217h-0.041c-1.231,0-1.641,0.376-1.641,1.217V37.783z"
		/>
	<path fill="#FFFFFF" d="M100.669,34.598c0-0.034-0.034-0.062-0.068-0.062h-0.622c-0.041,0-0.062,0.021-0.062,0.062v1.989
		c0,0.485,0.014,0.902,0.034,1.244c-0.096-0.225-0.191-0.431-0.294-0.601c-0.096-0.178-0.219-0.39-0.369-0.642l-1.224-2.01
		c-0.021-0.027-0.041-0.041-0.075-0.041h-0.677c-0.034,0-0.068,0.027-0.068,0.062v4.286c0,0.034,0.034,0.062,0.068,0.062h0.622
		c0.034,0,0.062-0.027,0.062-0.062v-1.989c0-0.478-0.014-0.889-0.034-1.23c0.198,0.458,0.383,0.786,0.663,1.23l1.224,2.01
		c0.021,0.027,0.048,0.041,0.075,0.041h0.677c0.034,0,0.068-0.027,0.068-0.062V34.598z"/>
	<path fill="#FFFFFF" d="M105.403,38.316c-0.745,0-0.889-0.123-0.889-0.533v-2.085c0-0.41,0.143-0.533,0.889-0.533h0.041
		c0.738,0,0.882,0.123,0.882,0.533v2.085c0,0.41-0.144,0.533-0.882,0.533H105.403z M103.762,37.783c0,0.841,0.41,1.217,1.641,1.217
		h0.041c1.23,0,1.634-0.376,1.634-1.217v-2.085c0-0.841-0.403-1.217-1.634-1.217h-0.041c-1.231,0-1.641,0.376-1.641,1.217V37.783z"
		/>
	<path fill="#FFFFFF" d="M114.3,34.598c0-0.034-0.034-0.062-0.068-0.062h-0.656c-0.027,0-0.054,0.021-0.075,0.055l-0.971,2.112
		c-0.13,0.28-0.226,0.526-0.287,0.725c-0.068-0.198-0.164-0.445-0.294-0.725l-0.971-2.112c-0.021-0.034-0.048-0.055-0.082-0.055
		h-0.65c-0.034,0-0.068,0.027-0.068,0.062v4.286c0,0.034,0.034,0.062,0.068,0.062h0.602c0.034,0,0.062-0.027,0.062-0.062v-1.757
		c0-0.437-0.014-0.889-0.041-1.347c0.13,0.41,0.301,0.861,0.526,1.347l0.499,1.08c0.007,0.027,0.034,0.041,0.068,0.041h0.547
		c0.034,0,0.055-0.007,0.075-0.041l0.499-1.08c0.226-0.485,0.397-0.937,0.526-1.347c-0.027,0.458-0.041,0.909-0.041,1.347v1.757
		c0,0.041,0.02,0.062,0.061,0.062h0.602c0.034,0,0.068-0.027,0.068-0.062V34.598z"/>
	<path fill="#FFFFFF" d="M120.442,34.611c0.021-0.034,0.007-0.075-0.041-0.075h-0.677c-0.034,0-0.062,0.014-0.075,0.048
		l-0.499,1.032c-0.184,0.383-0.307,0.643-0.424,1.073c-0.13-0.431-0.246-0.691-0.431-1.073l-0.499-1.032
		c-0.014-0.034-0.034-0.048-0.068-0.048h-0.684c-0.027,0-0.048,0.021-0.048,0.041c0,0.014,0,0.027,0.007,0.034l1.347,2.721v1.552
		c0,0.041,0.021,0.062,0.062,0.062h0.622c0.034,0,0.068-0.027,0.068-0.062v-1.565L120.442,34.611z"/>
	<path fill="#FFFFFF" d="M130.993,34.611c0.014-0.048-0.007-0.075-0.055-0.075h-0.663c-0.041,0-0.068,0.021-0.075,0.055
		l-0.547,2.044c-0.109,0.41-0.191,0.772-0.239,1.094c-0.062-0.362-0.144-0.725-0.253-1.1l-0.561-2.037
		c-0.007-0.034-0.034-0.055-0.068-0.055h-0.656c-0.041,0-0.068,0.021-0.075,0.055l-0.56,2.037c-0.109,0.403-0.191,0.772-0.246,1.107
		c-0.048-0.321-0.13-0.69-0.239-1.1l-0.554-2.044c-0.007-0.034-0.034-0.055-0.068-0.055h-0.67c-0.041,0-0.062,0.021-0.062,0.055
		l0.007,0.02l1.189,4.279c0.014,0.034,0.041,0.055,0.075,0.055h0.636c0.041,0,0.062-0.021,0.068-0.055l0.56-2.044
		c0.116-0.444,0.205-0.854,0.267-1.217c0.034,0.239,0.075,0.451,0.109,0.622c0.041,0.171,0.089,0.369,0.15,0.595l0.561,2.044
		c0.014,0.034,0.041,0.055,0.075,0.055h0.636c0.041,0,0.062-0.021,0.068-0.055L130.993,34.611z"/>
	<path fill="#FFFFFF" d="M136.507,35.22c0.034,0,0.068-0.027,0.068-0.062v-0.561c0-0.034-0.034-0.062-0.068-0.062h-2.625
		c-0.034,0-0.068,0.027-0.068,0.062v4.286c0,0.034,0.034,0.062,0.068,0.062h2.625c0.034,0,0.068-0.027,0.068-0.062v-0.56
		c0-0.034-0.034-0.062-0.068-0.062h-1.941v-1.203h1.736c0.048,0,0.068-0.021,0.068-0.068v-0.554c0-0.041-0.02-0.062-0.068-0.062
		h-1.736V35.22H136.507z"/>
	<path fill="#FFFFFF" d="M144.939,34.598c0-0.034-0.034-0.062-0.068-0.062h-2.919c-0.034,0-0.068,0.027-0.068,0.062v0.561
		c0,0.034,0.034,0.062,0.068,0.062h1.087v3.664c0,0.041,0.021,0.062,0.061,0.062h0.622c0.034,0,0.068-0.027,0.068-0.062V35.22h1.08
		c0.034,0,0.068-0.027,0.068-0.062V34.598z"/>
	<path fill="#FFFFFF" d="M148.47,35.22h0.848c0.588,0,0.677,0.089,0.677,0.506v0.485c0,0.417-0.089,0.506-0.677,0.506h-0.848V35.22z
		 M150.78,38.863l-0.813-1.511c0.526-0.116,0.779-0.492,0.779-1.142v-0.485c0-0.82-0.383-1.19-1.251-1.19h-1.709
		c-0.034,0-0.068,0.027-0.068,0.062v4.286c0,0.034,0.034,0.062,0.068,0.062h0.622c0.034,0,0.061-0.027,0.061-0.062V37.4h0.711
		l0.759,1.497c0.021,0.034,0.048,0.048,0.082,0.048h0.718c0.027,0,0.055-0.021,0.055-0.048L150.78,38.863z"/>
	<path fill="#FFFFFF" d="M153.689,37.783c0,0.848,0.431,1.217,1.586,1.217h0.041c1.169,0,1.593-0.369,1.593-1.217v-3.186
		c0-0.034-0.034-0.062-0.068-0.062h-0.622c-0.041,0-0.061,0.021-0.061,0.062v3.186c0,0.41-0.15,0.533-0.841,0.533h-0.041
		c-0.697,0-0.834-0.123-0.834-0.533v-3.186c0-0.034-0.027-0.062-0.062-0.062h-0.622c-0.034,0-0.068,0.027-0.068,0.062V37.783z"/>
	<path fill="#FFFFFF" d="M159.804,37.797c0,0.827,0.417,1.203,1.559,1.203h0.041c1.128,0,1.552-0.376,1.552-1.203V37.64
		c0-0.684-0.26-0.998-0.978-1.155l-0.95-0.212c-0.362-0.089-0.437-0.171-0.437-0.444v-0.144c0-0.403,0.137-0.52,0.772-0.52h0.041
		c0.629,0,0.766,0.116,0.766,0.52v0.178c0,0.034,0.034,0.061,0.068,0.061h0.622c0.034,0,0.061-0.027,0.061-0.061v-0.178
		c0-0.827-0.417-1.203-1.518-1.203h-0.041c-1.101,0-1.524,0.376-1.524,1.203v0.144c0,0.649,0.253,0.943,0.971,1.107l0.943,0.212
		c0.362,0.082,0.451,0.192,0.451,0.492v0.157c0,0.403-0.144,0.52-0.8,0.52h-0.041c-0.663,0-0.807-0.116-0.807-0.52v-0.178
		c0-0.041-0.02-0.062-0.061-0.062h-0.622c-0.034,0-0.068,0.027-0.068,0.062V37.797z"/>
	<path fill="#FFFFFF" d="M168.475,34.598c0-0.034-0.034-0.062-0.068-0.062h-2.919c-0.034,0-0.068,0.027-0.068,0.062v0.561
		c0,0.034,0.034,0.062,0.068,0.062h1.087v3.664c0,0.041,0.021,0.062,0.061,0.062h0.622c0.034,0,0.068-0.027,0.068-0.062V35.22h1.08
		c0.034,0,0.068-0.027,0.068-0.062V34.598z"/>
</g>
</svg>
